<svg width="512" height="512" xmlns="http://www.w3.org/2000/svg">

 <g>
  <title>Layer 1</title>
  <path id="svg_1" d="m504.1,256c0,-137 -111.1,-248.1 -248.1,-248.1c-137,0 -248.1,111.1 -248.1,248.1c0,137 111.1,248.1 248.1,248.1c137,0 248.1,-111.1 248.1,-248.1z" fill="#E04F5F"/>
  <path id="svg_2" d="m-365,320l72.5,-84.2c7.9,-9.2 6.9,-23 -2.3,-31c-9.2,-7.9 -23,-6.9 -30.9,2.3l-68.3,79.3l-68.2,-79.2c-7.9,-9.2 -21.8,-10.2 -31,-2.3c-9.2,7.9 -10.2,21.8 -2.3,31l72.5,84.1l-72.5,84.2c-7.9,9.2 -6.9,23 2.3,31c4.1,3.6 9.2,5.3 14.3,5.3c6.2,0 12.3,-2.6 16.6,-7.6l68.2,-79.2l68.2,79.2c4.3,5 10.5,7.6 16.6,7.6c5.1,0 10.2,-1.7 14.3,-5.3c9.2,-7.9 10.2,-21.8 2.3,-31l-72.3,-84.2z" fill="#FFF"/>
 </g>
</svg>