<?xml version="1.0" ?><svg height="48" id="黑白" viewBox="0 0 48 48" width="48" xmlns="http://www.w3.org/2000/svg"><title/><path d="M33.92,11.32v-.65a1.33,1.33,0,0,0-2.66,0v.44H16.6v-.44a1.33,1.33,0,0,0-2.66,0v.69a6.21,6.21,0,0,0-4.6,5.92V32.45a6.28,6.28,0,0,0,6.38,6.17h7.06a1.29,1.29,0,1,0,0-2.58H15.72A3.65,3.65,0,0,1,12,32.45V21.3H36v6.76h-2.6a5.69,5.69,0,0,0-5.78,5.58v3.54a1.28,1.28,0,0,0,.3.81,1.34,1.34,0,0,0,1.14.63h1.46c1.09,0,2.74-1.08,4.91-3.21s3.24-3.68,3.24-4.68V17.28A6.22,6.22,0,0,0,33.92,11.32ZM12,18.72V17.28a3.57,3.57,0,0,1,1.93-3.15v.93a1.33,1.33,0,0,0,2.66,0V13.69H31.26v1.37a1.33,1.33,0,0,0,2.66,0v-1A3.6,3.6,0,0,1,36,17.28v1.44ZM30.43,36h-.15v-2.4a3.06,3.06,0,0,1,3.11-3H36C35.53,31.83,31.58,35.68,30.43,36Z"/></svg>